# xmcd
#
# Track frame offsets: 
#        150
#        14080
#        27858
#        41678
#        55370
#        69933
#        84558
#        97070
#        109590
#        125555
#        140823
#        155818
#        167278
#        181758
#        196200
#        208950
#
# Disc length: 2963 seconds
#
# Revision: 0
# Processed by: cddbd v1.5.2PL0 Copyright (c) Steve Scherf et al.
# Submitted via: ExactAudioCopyFreeDBPlugin 1.0
#
DISCID=e40b9110
DTITLE=Jelly Roll Morton - The Complete Jelly Roll Morton Vol.4
DYEAR=1929
DGENRE=Jazz
TTITLE0=BURNIN' THE ICEBERG 1
TTITLE1=BURNIN' THE ICEBERG 2
TTITLE2=COURTHOUSE BUMP 1
TTITLE3=COURTHOUSE BUMP 2
TTITLE4=PRETTY LIL 1
TTITLE5=PRETTY LIL 2
TTITLE6=SWEET ANITA MINE 1
TTITLE7=SWEET ANITA MINE 2
TTITLE8=NEW ORLEANS BUMP 1
TTITLE9=NEW ORLEANS BUMP 2
TTITLE10=DOWN MY WAY
TTITLE11=TRY ME OUT
TTITLE12=TANK TOWN BUMP 1
TTITLE13=TANK TOWN BUMP 2
TTITLE14=SWEET PETER 1
TTITLE15=SWEET PETER 1
EXTD=
EXTT0=
EXTT1=
EXTT2=
EXTT3=
EXTT4=
EXTT5=
EXTT6=
EXTT7=
EXTT8=
EXTT9=
EXTT10=
EXTT11=
EXTT12=
EXTT13=
EXTT14=
EXTT15=
PLAYORDER=
